HIERARCHY
ROOT Hips
{
 OFFSET 0.000000 0.000000 0.000000
 CHANNELS 6 Xposition Yposition Zposition Yrotation Xrotation Zrotation
 JOINT Chest
 {
  OFFSET 0.000000 9.585900 0.002600
  CHANNELS 3 Yrotation Xrotation Zrotation
  JOINT Chest2
  {
   OFFSET 0.000000 9.601200 -0.005300
   CHANNELS 3 Yrotation Xrotation Zrotation
   JOINT Chest3
   {
    OFFSET 0.000000 9.561800 0.000000
    CHANNELS 3 Yrotation Xrotation Zrotation
    JOINT Chest4
    {
     OFFSET 0.000000 9.552100 0.000000
     CHANNELS 3 Yrotation Xrotation Zrotation
     JOINT Neck
     {
      OFFSET 0.000000 14.453000 0.000000
      CHANNELS 3 Yrotation Xrotation Zrotation
      JOINT Head
      {
       OFFSET 0.000000 8.936500 -0.011300
       CHANNELS 3 Yrotation Xrotation Zrotation
       End Site
       {
        OFFSET 0.000000 17.073600 -0.006000
       }
      }
     }
     JOINT RightCollar
     {
      OFFSET -2.921100 9.558500 0.000000
      CHANNELS 3 Yrotation Xrotation Zrotation
      JOINT RightShoulder
      {
       OFFSET -13.519700 0.000000 0.000000
       CHANNELS 3 Yrotation Xrotation Zrotation
       JOINT RightElbow
       {
        OFFSET 0.000000 -29.696600 0.000000
        CHANNELS 3 Yrotation Xrotation Zrotation
        JOINT RightWrist
        {
         OFFSET 0.000000 -24.004700 0.000000
         CHANNELS 3 Yrotation Xrotation Zrotation
         End Site
         {
          OFFSET 0.000000 -17.728500 0.000000
         }
        }
       }
      }
     }
     JOINT LeftCollar
     {
      OFFSET 2.921100 9.558500 0.000000
      CHANNELS 3 Yrotation Xrotation Zrotation
      JOINT LeftShoulder
      {
       OFFSET 13.519700 0.000000 0.000000
       CHANNELS 3 Yrotation Xrotation Zrotation
       JOINT LeftElbow
       {
        OFFSET 0.000000 -29.696600 0.000000
        CHANNELS 3 Yrotation Xrotation Zrotation
        JOINT LeftWrist
        {
         OFFSET 0.000000 -24.004700 0.000000
         CHANNELS 3 Yrotation Xrotation Zrotation
         End Site
         {
          OFFSET 0.000000 -17.728500 0.000000
         }
        }
       }
      }
     }
    }
   }
  }
 }
 JOINT RightHip
 {
  OFFSET -7.771700 -0.012900 -0.001300
  CHANNELS 3 Yrotation Xrotation Zrotation
  JOINT RightKnee
  {
   OFFSET 0.000000 -40.869800 0.001200
   CHANNELS 3 Yrotation Xrotation Zrotation
   JOINT RightAnkle
   {
    OFFSET 0.000000 -39.717900 0.002100
    CHANNELS 3 Yrotation Xrotation Zrotation
    JOINT RightToe
    {
     OFFSET 0.000000 -4.965400 11.033500
     CHANNELS 3 Yrotation Xrotation Zrotation
     End Site
     {
      OFFSET 0.000000 -1.423100 5.872300
     }
    }
   }
  }
 }
 JOINT LeftHip
 {
  OFFSET 7.771700 -0.012900 -0.001300
  CHANNELS 3 Yrotation Xrotation Zrotation
  JOINT LeftKnee
  {
   OFFSET 0.000000 -40.869800 0.001200
   CHANNELS 3 Yrotation Xrotation Zrotation
   JOINT LeftAnkle
   {
    OFFSET 0.000000 -39.717900 0.002100
    CHANNELS 3 Yrotation Xrotation Zrotation
    JOINT LeftToe
    {
     OFFSET 0.000000 -4.965400 11.033500
     CHANNELS 3 Yrotation Xrotation Zrotation
     End Site
     {
      OFFSET 0.000000 -1.423100 5.872300
     }
    }
   }
  }
 }
}
MOTION
Frames: 12
Frame Time: 0.008333
0.000000 85.388000 0.000000 0.000000 -5.767877 0.000000 0.000000 11.653817 0.000000 0.000000 -5.885947 0.000000 0.000000 -0.000000 0.000000 0.000000 -0.000000 0.000000 0.000000 12.528835 0.000000 0.000000 0.711642 0.000000 0.000000 -0.000000 0.000000 0.000000 0.000000 -90.000000 0.000000 -2.309062 0.000000 0.000000 2.309062 0.000000 0.000000 -0.000000 0.000000 0.000000 -0.000000 90.000000 0.000000 -2.309062 0.000000 0.000000 2.309062 0.000000 0.000000 8.520406 0.000000 0.000000 1.905762 0.000000 -0.000000 -4.658285 0.000000 0.000000 -0.000000 0.000000 0.000000 8.520406 0.000000 0.000000 1.905762 0.000000 -0.000000 -4.658285 0.000000 0.000000 -0.000000 0.000000
-256.299793 60.524932 -78.009837 153.245109 -33.025753 3.764507 2.344234 17.470781 1.082425 0.236205 1.871908 0.084377 0.430277 3.081868 0.104932 2.025739 15.265967 0.978420 1.536519 22.920122 4.258950 0.687641 -1.041353 4.256688 4.164370 8.723976 -1.747235 6.736928 -29.940356 -18.914885 -82.697209 -75.729082 96.085438 -4.757880 -1.425553 -39.340292 -9.026285 7.228827 -6.413546 12.335917 -12.490273 7.243011 41.902381 -51.082832 -64.227452 -0.902865 -5.207240 13.827177 -0.980875 -35.764395 7.061192 -21.492824 66.365432 -17.863154 1.131434 -1.972292 -4.490241 0.147028 0.020020 -0.069641 9.589698 -35.541896 4.565478 26.373731 59.148090 26.832560 -13.638086 -12.481229 -1.349074 -0.274399 0.066668 0.219396
-256.290954 60.532152 -77.991114 153.130389 -33.048159 3.811786 2.401483 17.500118 1.125708 0.240313 1.884696 0.086112 0.407067 3.123990 0.136622 2.074589 15.287260 0.961369 2.235597 22.804364 4.270030 1.441089 -1.175113 4.107910 4.119151 8.656793 -1.771705 6.666031 -29.478723 -18.858109 -84.534099 -77.435453 97.343152 -4.073473 -1.741970 -39.559081 -8.992635 7.157874 -6.399718 12.258535 -12.463953 7.358031 41.310535 -53.227542 -63.013716 -1.294497 -5.106543 13.452515 -0.913989 -35.722239 7.067580 -21.480661 66.317031 -17.808349 1.185774 -1.927669 -4.516035 0.127617 0.012884 -0.083692 9.605012 -35.468966 4.653547 26.385921 59.067845 26.796401 -13.735691 -12.467262 -1.563805 -0.210960 0.056083 0.316647
-256.287322 60.539321 -77.969224 153.061581 -33.044964 3.866269 2.417125 17.505721 1.142929 0.244954 1.896425 0.088211 0.408742 3.151303 0.151104 2.109802 15.316596 0.968085 2.892188 22.673049 4.262588 2.153160 -1.322264 3.949771 4.072389 8.607252 -1.800457 6.673663 -28.933294 -18.785557 -88.339763 -79.458424 100.433226 -3.200232 -1.996803 -39.409067 -8.941531 7.096706 -6.384848 12.223630 -12.478654 7.476723 40.593184 -55.233750 -61.842113 -1.623490 -5.009837 13.031404 -0.861143 -35.708817 7.037857 -21.467869 66.267911 -17.756414 1.207078 -1.885236 -4.552198 0.129310 0.003406 -0.062288 9.652536 -35.427408 4.662453 26.434814 58.921259 26.846740 -13.963114 -12.350577 -1.822423 -0.207828 0.000858 0.402043
-256.283088 60.550259 -77.949571 152.976822 -33.055882 3.941123 2.444845 17.526640 1.155861 0.249681 1.907074 0.090633 0.416601 3.168155 0.155177 2.144401 15.349981 0.989732 3.504658 22.530009 4.234190 2.822958 -1.479222 3.779703 4.027201 8.578737 -1.836434 6.716458 -28.347766 -18.664554 -94.627306 -81.620787 105.960278 -2.199196 -2.212098 -39.102562 -8.875143 7.041458 -6.375112 12.236319 -12.529171 7.598026 39.830003 -57.014210 -60.813181 -1.896644 -4.918130 12.612548 -0.813924 -35.668658 6.997421 -21.399426 66.215214 -17.668379 1.234933 -1.856438 -4.552981 0.131274 0.007943 -0.077882 9.732363 -35.385927 4.645818 26.454788 58.834328 26.871066 -14.094404 -12.216407 -2.046674 -0.226261 -0.076624 0.457526
-256.276684 60.567265 -77.936921 152.875810 -33.108854 4.037210 2.483359 17.589346 1.161926 0.254281 1.916523 0.093224 0.429282 3.171822 0.127550 2.182946 15.388952 1.046808 4.074282 22.380151 4.185752 3.451929 -1.641157 3.598248 3.981029 8.575860 -1.878445 6.740538 -27.769470 -18.483895 -104.578082 -83.680119 115.235784 -1.170064 -2.436638 -38.717612 -8.800822 6.986358 -6.370074 12.306153 -12.606540 7.711950 39.072004 -58.532634 -59.973907 -2.126198 -4.823973 12.221340 -0.770275 -35.579788 6.957572 -21.287314 66.177559 -17.576501 1.276804 -1.843185 -4.563774 0.088418 0.010813 -0.040925 9.828488 -35.300750 4.619737 26.440290 58.799610 26.850902 -14.105065 -12.096754 -2.222864 -0.237063 -0.148286 0.481656
-256.272436 60.585335 -77.926426 152.782995 -33.155840 4.148157 2.512137 17.642700 1.149435 0.258548 1.924488 0.095767 0.433841 3.190949 0.147807 2.213144 15.406874 1.052333 4.602020 22.229631 4.117942 4.041154 -1.801611 3.405821 3.932547 8.568273 -1.941373 6.697407 -27.198439 -18.232928 -120.544025 -85.365297 130.685631 -0.223029 -2.701574 -38.226912 -8.721267 6.931166 -6.367563 12.436301 -12.706297 7.806613 38.351243 -59.782702 -59.325279 -2.316789 -4.722292 11.868627 -0.676287 -35.515060 6.887219 -21.264530 66.147930 -17.547092 1.287391 -1.814647 -4.558807 0.085367 -0.003088 -0.041055 9.937520 -35.149007 4.565380 26.381566 58.658609 26.783775 -14.173937 -12.037932 -2.393129 -0.222426 -0.110543 0.488048
-256.266572 60.598142 -77.908220 152.739731 -33.144281 4.202484 2.514738 17.629978 1.165656 0.262239 1.930711 0.098115 0.437464 3.205510 0.167652 2.239190 15.421007 1.056393 5.088550 22.081833 4.031830 4.591081 -1.957252 3.203217 3.880007 8.641362 -1.982146 6.602829 -26.727745 -17.992462 -144.300208 -86.407299 154.095563 0.557519 -3.029168 -37.589865 -8.637402 6.877246 -6.366999 12.619074 -12.825727 7.874623 37.677671 -60.787069 -58.827320 -2.466845 -4.637392 11.552056 -0.659657 -35.502095 6.859382 -21.247732 66.095721 -17.517964 1.313430 -1.779764 -4.574821 0.089296 -0.011862 -0.036608 10.008805 -35.108725 4.519607 26.413989 58.531723 26.813068 -14.267034 -11.935364 -2.502732 -0.205569 -0.101068 0.449813
-256.256946 60.613094 -77.895023 152.654199 -33.156934 4.273201 2.555112 17.645288 1.189016 0.265230 1.935613 0.100193 0.442419 3.213283 0.171272 2.248228 15.425301 1.035158 5.565239 21.941902 3.969680 5.104375 -2.110212 2.992001 3.839226 8.732539 -1.988506 6.461908 -26.301988 -17.749468 -170.924292 -86.709379 -179.462881 1.134490 -3.424475 -36.805483 -8.534894 6.833993 -6.331887 12.836875 -12.957187 7.909354 37.055548 -61.604648 -58.424336 -2.577868 -4.585176 11.254660 -0.622297 -35.462226 6.838539 -21.214975 66.051639 -17.477262 1.345367 -1.750820 -4.586931 0.089379 -0.019526 -0.036892 10.102794 -35.065100 4.489241 26.423566 58.490260 26.817571 -14.264302 -11.872542 -2.528899 -0.186624 -0.096952 0.369297
-256.246549 60.625855 -77.882247 152.572568 -33.157667 4.338273 2.594559 17.653616 1.213508 0.267616 1.940068 0.102016 0.446436 3.220317 0.174445 2.257097 15.424110 1.015039 6.000202 21.806010 3.890682 5.582744 -2.262362 2.773008 3.807829 8.763871 -2.014679 6.272260 -25.857906 -17.496336 168.609201 -86.579489 -159.028565 1.508250 -3.841393 -35.910192 -8.439787 6.780414 -6.299123 13.064522 -13.089244 7.909750 36.497389 -62.297639 -58.086435 -2.663655 -4.532981 10.973915 -0.552509 -35.448085 6.815330 -21.235662 66.016568 -17.473189 1.364625 -1.714150 -4.589480 0.092527 -0.037502 -0.036281 10.196641 -35.035898 4.459047 26.390966 58.470381 26.790444 -14.243118 -11.850206 -2.528883 -0.176417 -0.071481 0.285768
-256.237960 60.637039 -77.872885 152.496680 -33.158057 4.418267 2.622654 17.667208 1.215930 0.269483 1.944465 0.103732 0.449470 3.227255 0.177293 2.280098 15.432465 1.034391 6.366097 21.665751 3.756760 6.026150 -2.412339 2.545721 3.730860 8.825398 -2.064292 6.116126 -25.495181 -17.298671 155.994932 -86.455287 -146.309460 1.696350 -4.192302 -34.957949 -8.372443 6.693824 -6.301762 13.274915 -13.208920 7.883091 35.999709 -62.892381 -57.794598 -2.742969 -4.465513 10.732185 -0.480426 -35.437893 6.765629 -21.235902 65.995250 -17.455690 1.391372 -1.684616 -4.581697 0.081659 -0.053884 -0.042918 10.318127 -34.998883 4.395111 26.292258 58.461664 26.722801 -14.229454 -11.872735 -2.499050 -0.179083 -0.023139 0.191551
-256.230159 60.645579 -77.865698 152.404648 -33.151200 4.515106 2.662841 17.678114 1.207040 0.270708 1.948608 0.105419 0.451420 3.233815 0.180079 2.295915 15.443533 1.051080 6.698586 21.527102 3.609215 6.434693 -2.556949 2.310326 3.652875 8.874107 -2.115885 5.970307 -25.166669 -17.120467 148.842494 -86.601303 -138.913226 1.733512 -4.403852 -34.001430 -8.349603 6.625823 -6.333934 13.471822 -13.348985 7.856810 35.560134 -63.411590 -57.518745 -2.820041 -4.396263 10.535908 -0.368982 -35.439724 6.701833 -21.263644 65.983607 -17.446438 1.389109 -1.671293 -4.590397 0.095865 -0.061937 -0.038109 10.449075 -34.974714 4.323516 26.218124 58.464052 26.674115 -14.227704 -11.908626 -2.448618 -0.170605 0.016813 0.099732
